<svg width="32" height="32" viewBox="0 0 32 32" fill="none" xmlns="http://www.w3.org/2000/svg">
<g clip-path="url(#clip0_578_942)">
<path d="M31.2608 19.1349C30.7917 21.3858 27.0589 23.849 22.7714 24.3263C20.5358 24.5749 18.3345 24.8036 15.9876 24.703C12.1491 24.5394 9.11995 23.849 9.11995 23.849C9.11995 24.1974 9.14306 24.529 9.18929 24.8391C9.68837 28.3719 12.9456 28.5834 16.0308 28.682C19.1452 28.7813 21.9183 27.966 21.9183 27.966L22.0463 30.5916C22.0463 30.5916 19.8681 31.6819 15.9876 31.8827C13.8475 31.9924 11.1907 31.8324 8.09612 31.0689C1.38469 29.4123 0.230302 22.7411 0.0539554 15.9725C2.42087e-05 13.9627 0.0334102 12.0678 0.0334102 10.4827C0.0334102 3.56123 4.89663 1.53265 4.89663 1.53265C7.34878 0.482242 11.5567 0.0408478 15.9311 0.00732422H16.039C20.413 0.0408478 24.6239 0.482242 27.076 1.53265C27.076 1.53265 31.9392 3.56123 31.9392 10.4827C31.9392 10.4827 32 15.5894 31.2608 19.1349Z" fill="black"/>
<path d="M26.2028 11.02V19.4005H22.6416V11.2662C22.6416 9.5513 21.8682 8.68128 20.3204 8.68128C18.6092 8.68128 17.7519 9.71333 17.7519 11.7551V16.2077H14.2117V11.7551C14.2117 9.71333 13.3539 8.68128 11.6431 8.68128C10.0954 8.68128 9.32148 9.5513 9.32148 11.2662V19.4005H5.76074V11.02C5.76074 9.30706 6.22857 7.94576 7.16809 6.93886C8.13671 5.93195 9.40538 5.41553 10.9805 5.41553C12.8026 5.41553 14.1826 6.06884 15.0947 7.37506L15.9816 8.7615L16.8688 7.37506C17.781 6.06884 19.1609 5.41553 20.983 5.41553C22.5577 5.41553 23.8268 5.93195 24.7954 6.93886C25.735 7.94576 26.2028 9.30706 26.2028 11.02V11.02Z" fill="white"/>
</g>
<defs>
<clipPath id="clip0_578_942">
<rect width="32" height="32" fill="white"/>
</clipPath>
</defs>
</svg>
